PathFileType	4	(X/Y/Z)	C:/Users/opensim2020/Desktop/walking_exp_matlab/subject02_walking15_straight_01.trc	
DataRate	CameraRate	NumFrames	NumMarkers	Units	OrigDataRate	OrigDataStartFrame	OrigNumFrames	
100.00	100.00	7	42	mm	100.00	491	165	
Frame#	Time	LFHD			RFHD			LBHD			RBHD			C7			T10			CLAV			STRN			RBAK			LSHO			LUPA			LELB			LFRM			LWRA			LWRB			LFIN			RSHO			RUPA			RELB			RFRM			RWRA			RWRB			RFIN			LASI			RASI			LPSI			RPSI			LTHI			LKNE			LTIB			LANK			LHEE			LTOE			RTHI			RKNE			RTIB			RANK			RHEE			RTOE			*39			*40			*41			
		X1	Y1	Z1	X2	Y2	Z2	X3	Y3	Z3	X4	Y4	Z4	X5	Y5	Z5	X6	Y6	Z6	X7	Y7	Z7	X8	Y8	Z8	X9	Y9	Z9	X10	Y10	Z10	X11	Y11	Z11	X12	Y12	Z12	X13	Y13	Z13	X14	Y14	Z14	X15	Y15	Z15	X16	Y16	Z16	X17	Y17	Z17	X18	Y18	Z18	X19	Y19	Z19	X20	Y20	Z20	X21	Y21	Z21	X22	Y22	Z22	X23	Y23	Z23	X24	Y24	Z24	X25	Y25	Z25	X26	Y26	Z26	X27	Y27	Z27	X28	Y28	Z28	X29	Y29	Z29	X30	Y30	Z30	X31	Y31	Z31	X32	Y32	Z32	X33	Y33	Z33	X34	Y34	Z34	X35	Y35	Z35	X36	Y36	Z36	X37	Y37	Z37	X38	Y38	Z38	X39	Y39	Z39	X40	Y40	Z40	X41	Y41	Z41	X42	Y42	Z42	

104	1.030	1521.03027	-34.98616	1724.88501	1664.99109	-33.04054	1711.12280	1517.48560	-166.35109	1650.67090	1659.94678	-177.00873	1635.84973	1593.64307	-220.84825	1509.49548	1603.46362	-263.14291	1231.11218	1577.98474	-82.14814	1445.44922	1581.59985	-23.27527	1275.89221	1654.87280	-272.88614	1330.14075	1413.02625	-160.10510	1488.35144	1319.18652	-154.99309	1296.28784	1288.58228	-121.73784	1158.52344	1289.05786	-17.82355	1071.32410	1329.78784	108.86417	1042.04993	1302.72131	81.50496	1001.22162	1297.15125	143.42937	984.00507	1776.36035	-145.42958	1475.80664	1858.88599	-199.10178	1292.30627	1879.53064	-206.71460	1148.76501	1910.51392	-205.48553	1032.63806	1907.02502	-183.60684	896.89844	1931.97400	-233.53481	907.06775	1943.35974	-213.87779	837.71686	1456.33594	-49.38486	962.66602	1701.56860	-10.17928	973.91296	1556.63110	-244.36333	1014.64026	1672.78894	-232.66057	1022.42041	1404.28125	-135.15910	649.23578	1423.11536	-165.12961	466.34543	1456.59436	-320.74741	369.68320	1512.48950	-463.96701	212.23235	1577.19116	-485.40445	211.38750	1463.00159	-414.68005	72.93600	1779.89478	-19.32947	675.66010	1734.17590	8.99590	468.66672	1748.47217	-22.04694	282.39709	1715.82727	-42.82650	90.75130	1667.35388	-86.45706	36.86069	1707.86743	109.17211	39.21524	1610.61340	-134.51721	1794.00073	-3356.78687	2846.00073	1034.27869			 
105	1.040	1520.94824	-22.64017	1727.64038	1664.80237	-20.50353	1713.56262	1517.60559	-154.09886	1653.47766	1660.22888	-164.40685	1638.42603	1594.09070	-208.32442	1512.21277	1604.10522	-250.60741	1233.59424	1577.62964	-69.80771	1448.11865	1581.23108	-10.90981	1278.45154	1656.20837	-260.04733	1332.93677	1413.00635	-148.87579	1490.59473	1319.67151	-146.99396	1297.71130	1290.08850	-115.20743	1159.38586	1289.53174	-14.48481	1068.39038	1328.96155	111.46148	1033.80469	1301.81726	82.28624	994.31122	1296.08215	143.34119	974.28223	1776.60950	-131.34595	1478.88599	1859.68042	-182.90764	1294.42700	1880.43457	-188.99573	1151.04224	1910.77161	-186.35484	1034.53052	1907.40271	-162.78284	899.28918	1932.68225	-212.85750	908.92535	1944.34241	-192.16168	840.07251	1455.48376	-37.54345	965.44873	1702.01172	2.07201	976.03680	1557.95068	-232.24931	1017.15601	1673.60828	-220.42976	1024.91333	1404.10840	-115.69521	651.76166	1422.80933	-139.59346	469.44757	1458.06274	-293.89133	372.10678	1514.31580	-436.39233	213.83578	1579.31079	-457.76764	211.45288	1461.58093	-384.95126	76.84882	1780.21448	-11.81939	676.32690	1734.88062	13.11302	468.68344	1749.09009	-19.69337	282.19382	1716.03687	-42.70080	90.90295	1667.29175	-86.50953	36.56469	1707.98145	109.00887	39.26560	1610.56140	-122.25629	1796.47351	-3356.88159	2845.98535	1034.27136			 
106	1.050	1520.57690	-10.46292	1730.24438	1664.46851	-7.96621	1715.98230	1517.50134	-141.99638	1656.25525	1660.14441	-151.88315	1640.97766	1594.38757	-195.82852	1514.79565	1604.78516	-238.19159	1236.13379	1577.19324	-57.51719	1450.68494	1580.77173	1.37809	1280.99097	1657.70972	-247.46632	1335.98047	1412.91602	-137.71733	1492.86389	1320.72400	-137.94380	1299.30518	1291.56372	-108.71886	1160.24121	1289.76160	-11.67467	1065.63538	1328.02600	113.30186	1025.17700	1301.34985	82.54282	987.16455	1294.84924	141.60020	963.92566	1776.64050	-117.29710	1481.92114	1860.14319	-166.86212	1296.59814	1880.64160	-171.28670	1153.03296	1911.32544	-166.63490	1036.93628	1907.65051	-141.57741	901.95050	1933.23486	-191.63623	910.83948	1945.01672	-169.72353	842.37610	1454.37109	-26.05054	968.57391	1702.19543	14.06175	977.93506	1559.19836	-220.25330	1019.67877	1674.35474	-208.23979	1027.25732	1403.80029	-96.47131	654.72388	1422.36353	-114.31844	472.67044	1459.20972	-267.12119	374.35397	1515.45874	-408.10294	214.10484	1580.18640	-429.38425	210.01175	1460.90405	-353.28445	79.20554	1780.33105	-4.89602	676.62268	1735.03479	16.28928	468.21683	1749.72852	-17.39820	282.34604	1716.22485	-42.64948	91.04941	1667.38025	-86.81174	36.87316	1708.07910	108.81973	39.31742	1610.57446	-109.78739	1798.98181	-3356.95947	2845.94165	1034.31799			 
107	1.060	1520.02271	1.76711	1732.55237	1663.98914	4.63132	1718.26355	1517.31848	-129.81577	1658.82068	1659.97510	-139.39381	1643.41895	1594.67603	-183.50041	1517.24304	1605.41980	-225.77940	1238.57678	1576.70276	-45.18448	1453.18652	1580.19910	13.61432	1283.40332	1658.66846	-234.56471	1338.42041	1412.85754	-126.51941	1495.01221	1321.20728	-129.36882	1300.98340	1292.95679	-102.29739	1161.14612	1289.96436	-9.05735	1062.43494	1327.12012	114.31301	1016.20129	1299.65405	81.34113	980.30505	1293.95569	139.73564	953.46063	1776.59937	-103.36821	1485.08862	1861.07727	-150.28082	1299.12659	1881.08899	-153.25687	1155.17358	1911.43860	-146.88007	1039.13013	1907.67517	-119.93871	904.73004	1933.61560	-169.92967	912.80206	1945.42297	-146.75177	844.86005	1453.04211	-14.73827	971.79144	1702.35278	25.91546	979.67065	1560.45496	-208.20653	1022.23053	1675.19324	-196.14977	1029.49561	1403.40906	-77.07893	657.67340	1421.95178	-89.62591	475.86194	1460.36365	-240.45718	376.25708	1516.39209	-378.24841	212.47374	1581.20776	-400.21320	207.62358	1460.88074	-319.85992	80.09312	1780.25684	1.58788	676.67474	1735.80859	19.51300	468.19455	1749.89221	-15.76304	282.01495	1716.35999	-42.63340	91.13605	1667.65601	-87.17942	36.82043	1708.13989	108.59371	39.31856	1610.63354	-97.06243	1801.56299	-3356.86670	2846.04077	1034.23608			 
108	1.070	1519.37207	13.98832	1734.73694	1663.35706	17.29548	1720.39404	1516.85400	-117.64154	1661.02380	1659.73657	-126.90448	1645.81787	1594.85339	-171.04027	1519.44629	1606.12268	-213.37375	1240.88000	1576.11829	-32.88039	1455.50513	1579.61621	25.87918	1285.65613	1659.97571	-221.80318	1341.09448	1412.69751	-115.40070	1496.99890	1321.74133	-120.68173	1302.59814	1294.39221	-95.95621	1162.13977	1290.10095	-6.79673	1059.59473	1326.10815	114.55936	1006.95642	1298.75012	79.54405	972.76642	1293.26221	137.16621	942.93823	1776.10352	-89.79495	1487.98425	1861.67932	-133.94321	1301.52551	1881.78125	-134.99113	1157.63660	1911.57483	-126.71223	1041.46045	1907.50354	-97.86465	907.59943	1933.89124	-147.76439	914.76843	1945.67737	-123.12422	847.38025	1451.73779	-3.82792	975.13062	1702.52039	37.69188	981.18817	1561.67480	-196.14951	1024.78027	1676.01514	-184.06000	1031.55261	1402.85388	-57.58253	660.86334	1421.55701	-65.44261	479.01852	1461.47217	-213.71442	377.51407	1516.85962	-348.00394	209.76622	1581.52234	-370.45340	204.36775	1461.14258	-284.96799	79.86338	1780.71631	8.44845	677.20898	1735.97571	22.08342	467.66241	1750.19080	-14.37998	281.85776	1716.39124	-42.64638	91.19650	1667.96167	-87.17460	36.98932	1708.27393	108.50307	39.30825	1610.10022	-84.57082	1803.68372	-3360.53711	2845.38892	1034.19543			 
109	1.080	1518.66040	26.26914	1736.67249	1662.52185	30.01211	1722.31592	1516.79553	-105.54398	1663.33777	1659.42493	-114.34839	1647.97400	1594.92798	-158.59361	1521.52991	1606.83911	-200.97516	1243.01453	1575.37512	-20.56266	1457.61230	1578.98474	38.11723	1287.69800	1661.46497	-209.05664	1343.90845	1412.53906	-104.20486	1498.82166	1322.20483	-112.51669	1304.02710	1295.74463	-89.51023	1163.06116	1290.28979	-5.24676	1056.51978	1325.27551	113.86088	997.38489	1297.18860	76.92995	965.69366	1291.95618	132.92662	932.05261	1775.68591	-76.15593	1490.85986	1862.13159	-117.40723	1303.93286	1881.98926	-116.97259	1159.88855	1911.82251	-106.09817	1044.00696	1907.03308	-75.38934	910.49664	1934.05566	-125.07395	916.77783	1945.63855	-98.91010	850.01514	1450.70764	7.28233	978.51135	1702.70630	49.28574	982.45807	1562.66553	-183.96710	1027.24866	1676.80396	-172.01544	1033.52966	1402.01978	-38.37428	664.09698	1421.33289	-41.81697	482.30634	1462.24597	-187.01640	377.94217	1516.96045	-317.33582	206.12378	1581.81262	-339.39380	199.51279	1461.43591	-248.84464	78.68545	1781.18164	15.37234	677.65704	1736.48779	24.51409	467.32516	1750.59363	-13.42577	282.09677	1716.45911	-42.65539	91.41740	1667.84106	-87.17867	37.04896	1708.40759	108.53887	39.23953	1609.62207	-71.90184	1805.82788	-3357.23926	2846.05225	1034.27759			 
110	1.090	1517.73865	38.56806	1738.34607	1661.66638	42.74334	1724.01917	1516.40918	-93.40931	1665.30652	1658.77380	-101.89375	1649.92944	1594.87451	-146.27165	1523.44360	1607.62268	-188.69769	1245.07300	1574.61609	-8.18217	1459.50195	1578.33191	50.39635	1289.53528	1662.14258	-196.34340	1345.97314	1412.33203	-93.02266	1500.38708	1322.83240	-102.96455	1305.08911	1297.00366	-82.97453	1163.85095	1290.13452	-4.21457	1053.38196	1324.11633	112.44128	987.80890	1296.68958	74.33595	958.13043	1290.67859	126.88532	921.53894	1775.12988	-62.70501	1493.64954	1862.45081	-101.22319	1306.20056	1882.60291	-98.55237	1162.28601	1911.83411	-85.50063	1046.33594	1906.58179	-52.53368	913.62207	1934.09668	-101.98741	918.76611	1945.41724	-74.19755	852.51190	1449.92542	18.65475	981.62482	1703.03906	60.88567	983.67725	1563.51611	-171.84421	1029.57568	1677.53625	-160.06104	1035.39893	1401.08777	-19.87218	667.51904	1421.12402	-18.54601	485.55762	1462.54712	-160.41481	377.35886	1517.03345	-284.94000	200.59233	1581.74146	-307.79590	193.49738	1461.85486	-211.00731	76.62202	1781.23901	21.82534	677.59875	1737.15674	26.97244	467.33743	1750.84534	-13.11954	282.28516	1716.15125	-42.52575	91.43075	1667.30615	-87.29299	37.05627	1708.57446	108.58331	38.99977	1609.05933	-59.17244	1807.78308	-3357.12524	2845.96680	1034.27429			 
